<svg xmlns="http://www.w3.org/2000/svg" viewBox="0 0 448 448">
  <defs>
    <style>
      .cls-1 {
        fill: #fff;
        stroke: #707070;
        opacity: 0;
      }

      .cls-2 {
        fill: #ff1d1d;
      }

      .cls-3 {
        fill: #fc3d21;
      }

      .cls-4 {
        fill: #a80000;
      }

      .cls-5 {
        stroke: none;
      }

      .cls-6 {
        fill: none;
      }
    </style>
  </defs>
  <g id="fire" transform="translate(-2753 -4072)">
    <g id="Rectangle_233" data-name="Rectangle 233" class="cls-1" transform="translate(2753 4072)">
      <rect class="cls-5" width="448" height="448"/>
      <rect class="cls-6" x="0.5" y="0.5" width="447" height="447"/>
    </g>
    <g id="fire-2" data-name="fire" transform="translate(2862 4129)">
      <path id="Path_791" data-name="Path 791" class="cls-2" d="M196.2,138.78A120.836,120.836,0,0,1,167.254,13.016,9.811,9.811,0,0,0,157.979,0h-1A72.966,72.966,0,0,0,84.1,72.884v63.068a11.209,11.209,0,1,1-22.419,0,9.813,9.813,0,0,0-15.707-7.846,115.913,115.913,0,0,0-33.444,39.726A113.7,113.7,0,0,0,0,220.052,114.933,114.933,0,1,0,196.2,138.78Zm0,0" transform="translate(0 0)"/>
      <path id="Path_792" data-name="Path 792" class="cls-3" d="M256.929,138.78A120.836,120.836,0,0,1,227.981,13.016,9.811,9.811,0,0,0,218.706,0h-1a72.49,72.49,0,0,0-42.062,13.395V334.983h.015a114.932,114.932,0,0,0,81.269-196.2Zm0,0" transform="translate(-60.727 0)"/>
      <path id="Path_793" data-name="Path 793" class="cls-4" d="M187.147,322.53l-38.484-38.486a9.812,9.812,0,0,0-13.88,0L96.3,322.53a64.24,64.24,0,1,0,90.851,0Zm0,0" transform="translate(-26.788 -97.21)"/>
      <path id="Path_794" data-name="Path 794" class="cls-4" d="M221.087,322.53,182.6,284.043a9.809,9.809,0,0,0-6.941-2.875h-.013V432.193h.016A64.239,64.239,0,0,0,221.087,322.53Zm0,0" transform="translate(-60.728 -97.21)"/>
    </g>
  </g>
</svg>
