<svg xmlns="http://www.w3.org/2000/svg" viewBox="0 0 512 509.5">
  <defs>
    <style>
      .cls-1 {
        fill: #c1dce5;
      }

      .cls-2 {
        fill: #e5cec1;
      }

      .cls-3 {
        fill: #917966;
      }

      .cls-4 {
        fill: #67342c;
      }

      .cls-5 {
        fill: #6b6b6b;
      }

      .cls-6 {
        fill: #ffd884;
      }
    </style>
  </defs>
  <g id="rubbish" transform="translate(0)">
    <path id="Path_833" data-name="Path 833" class="cls-1" d="M430.2,74.3h39.133l-51.2-51.2V62.234L397.16,83.207l-4.883-19.516L375.722,67.84l7.363,29.441-39.254,39.25L355.9,148.6l6.734-6.73v.008l45.293,9.055,3.348-16.727-34.141-6.836,18.02-18.02,29.449,7.363,4.129-16.555-19.508-4.883Zm0,0"/>
    <path id="Path_834" data-name="Path 834" class="cls-1" d="M136.277,67.84l-16.555-4.148-4.883,19.516L93.867,62.234V23.1l-51.2,51.2H81.8l20.977,20.973-19.508,4.883L87.4,116.711l29.449-7.363,18.02,18.02L100.726,134.2l3.348,16.727,45.293-9.055v-.008l6.734,6.73,12.066-12.066-39.254-39.25Zm0,0"/>
    <path id="Path_835" data-name="Path 835" class="cls-2" d="M366.934,219.367h85.332A25.6,25.6,0,1,0,496.821,202.3a25.6,25.6,0,1,0-44.555-17.066H366.934Zm0,0"/>
    <path id="Path_836" data-name="Path 836" class="cls-2" d="M145.066,219.367H59.734A25.6,25.6,0,1,1,15.179,202.3a25.6,25.6,0,1,1,44.555-17.066h85.332Zm0,0"/>
    <path id="Path_837" data-name="Path 837" class="cls-3" d="M8.535,449.766H503.469a207.64,207.64,0,0,0-23.8-96.527L356,117.676a112.952,112.952,0,0,0-200.008,0L32.332,353.239a207.59,207.59,0,0,0-23.8,96.527Zm0,0"/>
    <path id="Path_838" data-name="Path 838" class="cls-4" d="M179.2,31.633a8.52,8.52,0,0,1-6.031-2.5L156.1,12.066,168.168,0,179.2,11.035,190.234,0,202.3,12.066,185.234,29.133a8.529,8.529,0,0,1-6.035,2.5Zm0,0"/>
    <path id="Path_839" data-name="Path 839" class="cls-4" d="M332.8,31.633a8.529,8.529,0,0,1-6.035-2.5L309.7,12.066,321.766,0,332.8,11.035,343.836,0,355.9,12.066l-17.07,17.066a8.52,8.52,0,0,1-6.031,2.5Zm0,0"/>
    <path id="Path_840" data-name="Path 840" class="cls-5" d="M419.723,381.5h-1.59L435.2,347.367l-5.066-5.07a20.713,20.713,0,0,0-26.121-2.559,20.7,20.7,0,0,1-22.957,0,20.707,20.707,0,0,0-26.117,2.559l-5.07,5.07L366.934,381.5h-1.586a41.081,41.081,0,0,0-41.082,41.078A41.077,41.077,0,0,0,283.188,381.5H281.6l17.066-34.133-5.07-5.07a20.712,20.712,0,0,0-26.121-2.559,20.691,20.691,0,0,1-22.953,0A20.712,20.712,0,0,0,218.4,342.3l-5.07,5.07L230.4,381.5h-1.586a41.077,41.077,0,0,0-41.078,41.078A41.081,41.081,0,0,0,146.653,381.5h-1.586l17.066-34.133-5.07-5.07a20.707,20.707,0,0,0-26.117-2.559,20.7,20.7,0,0,1-22.957,0A20.713,20.713,0,0,0,81.868,342.3l-5.066,5.07L93.868,381.5h-1.59A41.08,41.08,0,0,0,51.2,422.578v37.309a41.08,41.08,0,0,0,41.078,41.078h54.375a41.081,41.081,0,0,0,41.082-41.078,41.077,41.077,0,0,0,41.078,41.078h54.375a41.077,41.077,0,0,0,41.078-41.078,41.081,41.081,0,0,0,41.082,41.078h54.375A41.08,41.08,0,0,0,460.8,459.887V422.578A41.08,41.08,0,0,0,419.723,381.5Zm0,0"/>
    <g id="Group_749" data-name="Group 749">
      <path id="Path_841" data-name="Path 841" class="cls-4" d="M145.066,219.367h17.066v17.066H145.066Zm0,0"/>
      <path id="Path_842" data-name="Path 842" class="cls-4" d="M162.133,202.3H179.2v17.066H162.133Zm0,0"/>
      <path id="Path_843" data-name="Path 843" class="cls-4" d="M349.867,219.367h17.066v17.066H349.867Zm0,0"/>
      <path id="Path_844" data-name="Path 844" class="cls-4" d="M332.8,202.3h17.066v17.066H332.8Zm0,0"/>
      <path id="Path_845" data-name="Path 845" class="cls-4" d="M247.465,244.965h17.07v17.066h-17.07Zm0,0"/>
      <path id="Path_846" data-name="Path 846" class="cls-4" d="M264.535,262.031H281.6V279.1H264.535Zm0,0"/>
      <path id="Path_847" data-name="Path 847" class="cls-4" d="M230.4,262.031h17.066V279.1H230.4Zm0,0"/>
    </g>
    <path id="Path_848" data-name="Path 848" class="cls-6" d="M256,99.9a51.2,51.2,0,1,0,51.2,51.2A51.2,51.2,0,0,0,256,99.9Zm0,68.266A17.066,17.066,0,1,1,273.066,151.1,17.066,17.066,0,0,1,256,168.164Zm0,0"/>
    <path id="Path_849" data-name="Path 849" d="M168.168,0,156.1,12.066l17.066,17.066a8.532,8.532,0,0,0,12.066,0L202.3,12.066,190.234,0,179.2,11.035Zm0,0"/>
    <path id="Path_850" data-name="Path 850" d="M321.766,0,309.7,12.066l17.066,17.066a8.532,8.532,0,0,0,12.066,0L355.9,12.066,343.832,0,332.8,11.031Zm0,0"/>
    <path id="Path_851" data-name="Path 851" d="M145.066,219.367h17.066v17.066H145.066Zm0,0"/>
    <path id="Path_852" data-name="Path 852" d="M162.133,202.3H179.2v17.066H162.133Zm0,0"/>
    <path id="Path_853" data-name="Path 853" d="M349.867,219.367h17.066v17.066H349.867Zm0,0"/>
    <path id="Path_854" data-name="Path 854" d="M332.8,202.3h17.066v17.066H332.8Zm0,0"/>
    <path id="Path_855" data-name="Path 855" d="M247.465,244.965h17.07v17.066h-17.07Zm0,0"/>
    <path id="Path_856" data-name="Path 856" d="M264.535,262.031H281.6V279.1H264.535Zm0,0"/>
    <path id="Path_857" data-name="Path 857" d="M230.4,262.031h17.066V279.1H230.4Zm0,0"/>
    <path id="Path_858" data-name="Path 858" d="M477.867,151.1a34.19,34.19,0,0,0-33.051,25.6H396.629l-16.445-31.316,27.742,5.547,3.348-16.727-34.133-6.824,18.02-18.023,29.449,7.363,4.133-16.555-19.508-4.883,12.434-12.449h47.664a8.532,8.532,0,0,0,6.035-14.566l-51.2-51.2A8.533,8.533,0,0,0,409.6,23.1V70.766L397.16,83.219l-4.883-19.527L375.722,67.84l7.363,29.441-18.457,18.465-1.074-2.039a121.481,121.481,0,0,0-215.109,0l-1.074,2.039L128.914,97.282l7.363-29.441-16.555-4.148L114.84,83.215,102.4,70.766V23.1a8.532,8.532,0,0,0-14.566-6.031l-51.2,51.2a8.535,8.535,0,0,0,6.035,14.566H90.336l12.441,12.441L83.27,100.157,87.4,116.711l29.449-7.363,18.023,18.02L100.738,134.2l3.344,16.727,27.742-5.547L115.371,176.7H67.184A34.134,34.134,0,0,0,0,185.235,33.673,33.673,0,0,0,4.66,202.3,33.662,33.662,0,0,0,0,219.368,34.134,34.134,0,0,0,67.184,227.9H88.516L24.746,349.27A217.047,217.047,0,0,0,0,449.766,8.534,8.534,0,0,0,8.535,458.3H42.668v1.594A49.652,49.652,0,0,0,92.27,509.5h54.395a49.588,49.588,0,0,0,41.07-21.82A49.583,49.583,0,0,0,228.8,509.5H283.2a49.583,49.583,0,0,0,41.07-21.82,49.588,49.588,0,0,0,41.07,21.82h54.395a49.652,49.652,0,0,0,49.6-49.605V458.3h34.133A8.534,8.534,0,0,0,512,449.766a217.059,217.059,0,0,0-24.746-100.5L423.508,227.9h21.336A34.133,34.133,0,0,0,512,219.368a33.662,33.662,0,0,0-4.66-17.066A33.673,33.673,0,0,0,512,185.235,34.135,34.135,0,0,0,477.867,151.1Zm-51.2-107.4,22.066,22.066H426.668ZM85.332,65.766H63.265L85.332,43.7Zm-25.6,145.066a8.534,8.534,0,0,0-8.535,8.535,17.066,17.066,0,1,1-34.133,0,16.851,16.851,0,0,1,4.445-11.359,8.532,8.532,0,0,0,0-11.418,16.849,16.849,0,0,1-4.445-11.355,17.066,17.066,0,1,1,34.133,0,8.533,8.533,0,0,0,8.535,8.531H106.41l-8.961,17.066ZM179.2,459.9a32.581,32.581,0,0,1-32.535,32.539H92.269A32.579,32.579,0,0,1,59.734,459.9V422.571a32.581,32.581,0,0,1,32.535-32.539h9.438l-23.039,28.8L92,429.5l18.938-23.672V432.7H128V405.829L146.933,429.5l13.332-10.668-23.043-28.8h9.441A32.581,32.581,0,0,1,179.2,422.571ZM87.184,349.075l.719-.719a12.178,12.178,0,0,1,15.359-1.512,29.178,29.178,0,0,0,32.426,0,12.2,12.2,0,0,1,15.359,1.52l.719.719L139.82,372.974H99.141ZM315.734,459.9A32.582,32.582,0,0,1,283.2,492.434H228.8A32.582,32.582,0,0,1,196.266,459.9V422.571A32.582,32.582,0,0,1,228.8,390.032h9.438l-23.039,28.8L228.531,429.5l18.934-23.672V432.7h17.07V405.829L283.469,429.5,296.8,418.833l-23.039-28.8H283.2a32.582,32.582,0,0,1,32.539,32.539Zm-92.016-110.82.715-.719a12.184,12.184,0,0,1,15.363-1.512,29.178,29.178,0,0,0,32.426,0,12.2,12.2,0,0,1,15.359,1.52l.719.719-11.949,23.891H235.676ZM452.266,459.9a32.581,32.581,0,0,1-32.535,32.539H365.336A32.581,32.581,0,0,1,332.8,459.9V422.571a32.581,32.581,0,0,1,32.535-32.539h9.441l-23.043,28.8L365.063,429.5,384,405.829V432.7h17.066V405.829L420,429.5l13.332-10.668-23.039-28.8h9.438a32.579,32.579,0,0,1,32.535,32.539ZM360.25,349.075l.719-.719a12.179,12.179,0,0,1,15.359-1.512,29.178,29.178,0,0,0,32.426,0,12.21,12.21,0,0,1,15.363,1.52l.715.719-11.945,23.891h-40.68Zm111.855,8.148a199.967,199.967,0,0,1,22.648,84.012H469.332V422.571a49.652,49.652,0,0,0-38.094-48.2l11.641-23.187a8.534,8.534,0,0,0-1.605-9.848l-5.066-5.066a29.294,29.294,0,0,0-36.883-3.652,12.163,12.163,0,0,1-13.5,0,29.29,29.29,0,0,0-36.879,3.652l-5.07,5.066a8.534,8.534,0,0,0-1.605,9.848l11.6,23.188a49.751,49.751,0,0,0-29.6,20.418A49.759,49.759,0,0,0,294.7,374.368l11.641-23.187a8.528,8.528,0,0,0-1.605-9.848l-5.066-5.066a29.294,29.294,0,0,0-36.883-3.652,12.163,12.163,0,0,1-13.5,0,29.29,29.29,0,0,0-36.879,3.652l-5.07,5.066a8.54,8.54,0,0,0-1.605,9.848l11.6,23.188a49.751,49.751,0,0,0-29.6,20.418,49.75,49.75,0,0,0-29.559-20.418l11.637-23.187a8.533,8.533,0,0,0-1.6-9.848l-5.07-5.066a29.294,29.294,0,0,0-36.883-3.652,12.156,12.156,0,0,1-13.5,0,29.294,29.294,0,0,0-36.883,3.652l-5.07,5.066a8.533,8.533,0,0,0-1.6,9.848L80.8,374.368a49.651,49.651,0,0,0-38.133,48.2v18.664H17.246A199.989,199.989,0,0,1,39.894,357.2l123.664-235.52a104.409,104.409,0,0,1,184.883,0Zm18.383-149.188a16.847,16.847,0,0,1,4.445,11.332,17.066,17.066,0,0,1-34.133,0,8.534,8.534,0,0,0-8.535-8.535H414.551l-8.961-17.066h46.676a8.534,8.534,0,0,0,8.535-8.535,17.066,17.066,0,1,1,34.133,0,16.851,16.851,0,0,1-4.445,11.359,8.532,8.532,0,0,0,0,11.418Zm0,0"/>
    <path id="Path_859" data-name="Path 859" d="M256,125.5a25.6,25.6,0,1,0,25.6,25.6A25.6,25.6,0,0,0,256,125.5Zm0,34.133a8.533,8.533,0,1,1,8.535-8.535A8.536,8.536,0,0,1,256,159.633Zm0,0"/>
    <path id="Path_860" data-name="Path 860" d="M256,91.367a59.732,59.732,0,1,0,59.734,59.73A59.734,59.734,0,0,0,256,91.367Zm0,102.4A42.666,42.666,0,1,1,298.668,151.1,42.669,42.669,0,0,1,256,193.765Zm0,0"/>
  </g>
</svg>
