<svg height="512pt" viewBox="0 0 512 512" width="512pt" xmlns="http://www.w3.org/2000/svg"><path d="m331 400.898438v96.101562c0 8.398438-6.597656 15-15 15s-15-6.601562-15-15v-96.101562c0-8.398438 6.597656-15 15-15s15 6.601562 15 15zm0 0" fill="#68544f"/><path d="m331 400.898438v96.101562c0 8.398438-6.597656 15-15 15v-126.101562c8.402344 0 15 6.601562 15 15zm0 0" fill="#3e322e"/><path d="m442.898438 217.898438c5.402343-11.398438 8.101562-24 8.101562-36.898438 0-40.199219-25.800781-74.101562-62.699219-85.5 1.796875-6.300781 2.699219-13.902344 2.699219-20.5 0-41.398438-33.601562-75-75-75s-75 33.601562-75 75c0 6.597656.902344 14.199219 2.699219 20.5-36.898438 11.398438-62.699219 45.300781-62.699219 85.5 0 12.898438 2.699219 25.5 8.101562 36.898438-40.503906 15-68.101562 53.402343-68.101562 98.101562 0 57.898438 47.101562 105 105 105h180c57.898438 0 106-47.101562 106-105 0-44.699219-28.597656-83.101562-69.101562-98.101562zm0 0" fill="#a8d32a"/><path d="m512 316c0 57.898438-48.101562 105-106 105h-90v-421c41.398438 0 75 33.601562 75 75 0 6.597656-.902344 14.199219-2.699219 20.5 36.898438 11.398438 62.699219 45.300781 62.699219 85.5 0 12.898438-2.699219 25.5-8.101562 36.898438 40.503906 15 69.101562 53.402343 69.101562 98.101562zm0 0" fill="#81a713"/><path d="m322.898438 217.898438c5.402343-11.398438 8.101562-24 8.101562-36.898438 0-40.199219-25.800781-74.101562-62.699219-85.5 1.796875-6.300781 2.699219-13.902344 2.699219-20.5 0-41.398438-33.601562-75-75-75s-75 33.601562-75 75c0 6.597656.902344 14.199219 2.699219 20.5-36.898438 11.398438-62.699219 45.300781-62.699219 85.5 0 12.898438 2.699219 25.5 8.101562 36.898438-40.503906 15-69.101562 53.402343-69.101562 98.101562 0 57.898438 48.101562 105 106 105h180c57.898438 0 105-47.101562 105-105 0-44.699219-27.597656-83.101562-68.101562-98.101562zm0 0" fill="#b9dd39"/><path d="m391 316c0 57.898438-47.101562 105-105 105h-90v-421c41.398438 0 75 33.601562 75 75 0 6.597656-.902344 14.199219-2.699219 20.5 36.898438 11.398438 62.699219 45.300781 62.699219 85.5 0 12.898438-2.699219 25.5-8.101562 36.898438 40.503906 15 68.101562 53.402343 68.101562 98.101562zm0 0" fill="#93bf00"/><path d="m262.597656 269.5-51.597656 25.800781v201.699219c0 8.398438-6.597656 15-15 15s-15-6.601562-15-15v-141.699219l-51.597656-25.800781c-7.5-3.898438-10.503906-12.902344-6.902344-20.101562 3.898438-7.5 12.898438-10.5 20.097656-6.898438l38.402344 19.199219v-86.398438l-51.597656-25.800781c-7.5-3.898438-10.503906-12.902344-6.902344-20.101562 3.898438-7.5 12.898438-10.5 20.097656-6.898438l38.402344 19.199219v-35.699219c0-8.402344 6.597656-15 15-15s15 6.597656 15 15v95.699219l38.402344-19.199219c7.199218-3.601562 16.199218-.601562 20.097656 6.898438 3.601562 7.199218.597656 16.203124-6.902344 20.101562zm0 0" fill="#725d57"/><path d="m262.597656 269.5-51.597656 25.800781v201.699219c0 8.398438-6.597656 15-15 15v-361c8.402344 0 15 6.597656 15 15v95.699219l38.402344-19.199219c7.199218-3.601562 16.199218-.601562 20.097656 6.898438 3.601562 7.199218.597656 16.203124-6.902344 20.101562zm0 0" fill="#53433f"/><path d="m512 497c0 8.398438-6.597656 15-15 15h-482c-8.402344 0-15-6.601562-15-15 0-8.402344 6.597656-15 15-15h482c8.402344 0 15 6.597656 15 15zm0 0" fill="#a8d32a"/><path d="m512 497c0 8.398438-6.597656 15-15 15h-301v-30h301c8.402344 0 15 6.597656 15 15zm0 0" fill="#93bf00"/></svg>