<svg xmlns="http://www.w3.org/2000/svg" viewBox="0 0 1411.441 482.313">
  <defs>
    <style>
      .cls-1 {
        fill: #ff1d1d;
      }

      .cls-2 {
        fill: #fc3d21;
      }

      .cls-3 {
        fill: #a80000;
      }

      .cls-4 {
        fill: #fff;
        font-size: 288px;
        font-family: SegoeUI, Segoe UI;
        letter-spacing: -0.078em;
      }
    </style>
  </defs>
  <g id="logo-white" transform="translate(1535.441 -4369.687)">
    <g id="fire" transform="translate(-1535.441 4369.687)">
      <path id="Path_791" data-name="Path 791" class="cls-1" d="M236.81,167.5A145.845,145.845,0,0,1,201.87,15.71,11.842,11.842,0,0,0,190.675,0h-1.206A88.068,88.068,0,0,0,101.5,87.968v76.121a13.529,13.529,0,1,1-27.059,0,11.844,11.844,0,0,0-18.958-9.47,139.9,139.9,0,0,0-40.366,47.948A137.228,137.228,0,0,0,0,265.6c0,76.487,62.23,138.717,138.72,138.717s138.72-62.23,138.72-138.72A137.811,137.811,0,0,0,236.81,167.5Zm0,0"/>
      <path id="Path_792" data-name="Path 792" class="cls-2" d="M273.752,167.5A145.845,145.845,0,0,1,238.813,15.71,11.842,11.842,0,0,0,227.618,0h-1.206a87.493,87.493,0,0,0-50.767,16.167V404.313h.018c76.49,0,138.72-62.23,138.72-138.72A137.811,137.811,0,0,0,273.752,167.5Zm0,0" transform="translate(-36.943 0)"/>
      <path id="Path_793" data-name="Path 793" class="cls-3" d="M209.844,331.09l-46.449-46.452a11.843,11.843,0,0,0-16.752,0L100.19,331.09a77.536,77.536,0,1,0,109.654,0Zm0,0" transform="translate(-16.296 -59.137)"/>
      <path id="Path_794" data-name="Path 794" class="cls-3" d="M230.491,331.09l-46.449-46.452a11.839,11.839,0,0,0-8.378-3.471h-.016V463.45h.019a77.534,77.534,0,0,0,54.824-132.36Zm0,0" transform="translate(-36.943 -59.137)"/>
    </g>
    <text id="WILDFIRE" class="cls-4" transform="translate(-1186 4780)"><tspan x="0" y="0">WILDFIRE</tspan></text>
  </g>
</svg>
