<svg height="512pt" viewBox="0 -22 512 512" width="512pt" xmlns="http://www.w3.org/2000/svg"><path d="m484.574219 201.0625c.496093-2.3125.753906-4.710938.753906-7.171875 0-18.832031-15.265625-34.097656-34.09375-34.097656-18.832031 0-34.097656 15.265625-34.097656 34.097656 0 2.460937.257812 4.859375.753906 7.171875-10.675781 9.304688-17.425781 23.003906-17.425781 38.28125 0 28.039062 22.730468 50.769531 50.769531 50.769531 28.035156 0 50.765625-22.730469 50.765625-50.769531 0-15.277344-6.746094-28.976562-17.425781-38.28125zm0 0" fill="#92e0c0"/><path d="m10 10h252.984375v384.601562h-252.984375zm0 0" fill="#ededed"/><path d="m262.984375 82.414062v312.1875h137.484375v-279.734374zm0 0" fill="#fcc8a4"/><path d="m167.160156 394.601562h-61.335937v-59.5c0-16.9375 13.730469-30.667968 30.667969-30.667968s30.667968 13.730468 30.667968 30.667968zm0 0" fill="#8e8d9b"/><path d="m40.003906 140.664062h43.949219v43.953126h-43.949219zm0 0" fill="#92abd8"/><path d="m83.953125 194.613281h-43.949219c-5.523437 0-10-4.476562-10-10v-43.949219c0-5.519531 4.476563-10 10-10h43.949219c5.523437 0 10 4.480469 10 10v43.949219c0 5.523438-4.476563 10-10 10zm-33.949219-20h23.949219v-23.949219h-23.949219zm0 0"/><path d="m189.03125 140.664062h43.949219v43.953126h-43.949219zm0 0" fill="#92abd8"/><path d="m232.980469 194.613281h-43.949219c-5.523438 0-10-4.476562-10-10v-43.949219c0-5.519531 4.476562-10 10-10h43.949219c5.523437 0 10 4.480469 10 10v43.949219c0 5.523438-4.476563 10-10 10zm-33.949219-20h23.949219v-23.949219h-23.949219zm0 0"/><path d="m114.515625 140.664062h43.953125v43.953126h-43.953125zm0 0" fill="#92abd8"/><path d="m158.46875 194.613281h-43.953125c-5.519531 0-10-4.476562-10-10v-43.949219c0-5.519531 4.480469-10 10-10h43.953125c5.519531 0 10 4.480469 10 10v43.949219c0 5.523438-4.480469 10-10 10zm-33.953125-20h23.953125v-23.949219h-23.953125zm0 0"/><path d="m40.003906 51.066406h43.949219v43.953125h-43.949219zm0 0" fill="#a6d3ff"/><path d="m83.953125 105.019531h-43.949219c-5.523437 0-10-4.480469-10-10v-43.949219c0-5.523437 4.476563-10 10-10h43.949219c5.523437 0 10 4.476563 10 10v43.949219c0 5.519531-4.476563 10-10 10zm-33.949219-20h23.949219v-23.949219h-23.949219zm0 0"/><path d="m189.03125 51.066406h43.949219v43.953125h-43.949219zm0 0" fill="#a6d3ff"/><path d="m232.980469 105.019531h-43.949219c-5.523438 0-10-4.480469-10-10v-43.949219c0-5.523437 4.476562-10 10-10h43.949219c5.523437 0 10 4.476563 10 10v43.949219c0 5.519531-4.476563 10-10 10zm-33.949219-20h23.949219v-23.949219h-23.949219zm0 0"/><path d="m114.515625 51.066406h43.953125v43.953125h-43.953125zm0 0" fill="#a6d3ff"/><path d="m158.46875 105.019531h-43.953125c-5.519531 0-10-4.480469-10-10v-43.949219c0-5.523437 4.480469-10 10-10h43.953125c5.519531 0 10 4.476563 10 10v43.949219c0 5.519531-4.480469 10-10 10zm-33.953125-20h23.953125v-23.949219h-23.953125zm0 0"/><path d="m40.003906 230.261719h43.949219v43.953125h-43.949219zm0 0" fill="#a6d3ff"/><path d="m83.953125 284.210938h-43.949219c-5.523437 0-10-4.476563-10-10v-43.949219c0-5.523438 4.476563-10 10-10h43.949219c5.523437 0 10 4.476562 10 10v43.949219c0 5.523437-4.476563 10-10 10zm-33.949219-20h23.949219v-23.949219h-23.949219zm0 0"/><path d="m189.03125 230.261719h43.949219v43.953125h-43.949219zm0 0" fill="#a6d3ff"/><path d="m232.980469 284.210938h-43.949219c-5.523438 0-10-4.476563-10-10v-43.949219c0-5.523438 4.476562-10 10-10h43.949219c5.523437 0 10 4.476562 10 10v43.949219c0 5.523437-4.476563 10-10 10zm-33.949219-20h23.949219v-23.949219h-23.949219zm0 0"/><path d="m114.515625 230.261719h43.953125v43.953125h-43.953125zm0 0" fill="#a6d3ff"/><path d="m158.46875 284.210938h-43.953125c-5.519531 0-10-4.476563-10-10v-43.949219c0-5.523438 4.480469-10 10-10h43.953125c5.519531 0 10 4.476562 10 10v43.949219c0 5.523437-4.480469 10-10 10zm-33.953125-20h23.953125v-23.949219h-23.953125zm0 0"/><path d="m10 394.601562h492v63.332032h-492zm0 0" fill="#d2937f"/><path d="m300 160.714844h54v184.796875h-54zm0 0" fill="#a6d3ff"/><path d="m354 355.511719h-54c-5.523438 0-10-4.480469-10-10v-184.796875c0-5.523438 4.476562-10 10-10h54c5.523438 0 10 4.476562 10 10v184.796875c0 5.519531-4.476562 10-10 10zm-44-20h34v-164.796875h-34zm0 0"/><path d="m392.308594 437.976562c-.660156 0-1.308594-.070312-1.957032-.199218-.640624-.121094-1.261718-.320313-1.871093-.570313-.601563-.25-1.179688-.558593-1.71875-.921875-.550781-.355468-1.0625-.777344-1.53125-1.238281-.460938-.457031-.871094-.96875-1.238281-1.519531-.359376-.539063-.671876-1.121094-.921876-1.730469-.25-.601563-.4375-1.230469-.570312-1.867187-.128906-.644532-.199219-1.300782-.199219-1.953126 0-.648437.070313-1.308593.199219-1.957031.132812-.632812.320312-1.261719.570312-1.871093.25-.601563.5625-1.179688.921876-1.71875.367187-.550782.777343-1.0625 1.238281-1.523438.46875-.457031.980469-.878906 1.53125-1.238281.539062-.367188 1.117187-.671875 1.71875-.921875.609375-.25 1.230469-.445313 1.871093-.566406 1.289063-.261719 2.617188-.261719 3.910157 0 .636719.121093 1.269531.316406 1.867187.566406.601563.25 1.179688.554687 1.730469.921875.539063.359375 1.058594.78125 1.519531 1.238281.460938.460938.882813.972656 1.242188 1.523438.359375.539062.667968 1.117187.917968 1.71875.25.609374.441407 1.238281.570313 1.871093.128906.648438.191406 1.308594.191406 1.957031 0 .652344-.0625 1.3125-.191406 1.953126-.128906.636718-.320313 1.269531-.570313 1.867187-.25.609375-.558593 1.191406-.917968 1.730469-.359375.550781-.78125 1.058594-1.242188 1.519531-.457031.460937-.980468.882813-1.519531 1.238281-.550781.363282-1.128906.671875-1.730469.921875-.597656.25-1.230468.449219-1.867187.570313-.652344.128906-1.300781.199218-1.953125.199218zm0 0"/><path d="m502 384.601562h-40.765625v-85.320312c28.765625-4.78125 50.765625-29.835938 50.765625-59.9375 0-15.691406-6.066406-30.695312-16.808594-41.953125.09375-1.164063.136719-2.332031.136719-3.5 0-24.316406-19.777344-44.097656-44.09375-44.097656-18.371094 0-34.148437 11.289062-40.769531 27.292969v-62.21875c0-4.636719-3.1875-8.664063-7.699219-9.730469l-129.78125-30.640625v-64.496094c0-5.523438-4.476563-10-10-10h-252.984375c-5.523438 0-10 4.476562-10 10v447.933594c0 5.523437 4.476562 10 10 10h492c5.523438 0 10-4.476563 10-10v-63.332032c0-5.523437-4.476562-10-10-10zm-91.53125 0v-100.234374c8.441406 7.652343 19.042969 12.96875 30.765625 14.914062v85.320312zm13.992188-176.003906c2.742187-2.386718 3.972656-6.074218 3.210937-9.632812-.355469-1.648438-.535156-3.355469-.535156-5.074219 0-13.285156 10.808593-24.097656 24.097656-24.097656 13.285156 0 24.097656 10.8125 24.097656 24.097656 0 1.714844-.179687 3.421875-.535156 5.078125-.761719 3.554688.46875 7.242188 3.207031 9.628906 8.894532 7.753906 13.996094 18.960938 13.996094 30.746094 0 22.476562-18.285156 40.765625-40.765625 40.765625-22.476563 0-40.765625-18.285156-40.765625-40.765625 0-11.785156 5.097656-22.992188 13.992188-30.746094zm-33.992188-85.816406v261.820312h-117.484375v-289.554687zm-370.46875-102.78125h232.984375v364.601562h-75.824219v-49.5c0-22.425781-18.246094-40.667968-40.667968-40.667968-22.425782 0-40.667969 18.242187-40.667969 40.667968v49.5h-75.824219zm137.160156 364.601562h-41.335937v-49.5c0-11.398437 9.273437-20.667968 20.667969-20.667968 11.394531 0 20.667968 9.269531 20.667968 20.667968zm334.839844 63.332032h-472v-9.957032h329.304688c5.519531 0 10-4.476562 10-10 0-5.523437-4.480469-10-10-10h-329.304688v-13.375h472zm0 0"/></svg>