<svg xmlns="http://www.w3.org/2000/svg" viewBox="0 0 344 387">
  <defs>
    <style>
      .cls-1 {
        fill: #8a8a8a;
      }

      .cls-2 {
        fill: #5c5c5c;
      }

      .cls-3 {
        fill: #ff1d1d;
      }

      .cls-4 {
        fill: #fc3d21;
      }

      .cls-5 {
        fill: #a80000;
      }
    </style>
  </defs>
  <g id="Group_753" data-name="Group 753" transform="translate(-2219.882 -6746)">
    <g id="smoke" transform="translate(2114.941 6746)">
      <path id="Path_870" data-name="Path 870" class="cls-1" d="M440.941,60a52,52,0,0,0-52-52h-24a20,20,0,0,0-20,20,20,20,0,0,1-20,20h-4a32,32,0,0,0-32,32v32h-80a32,32,0,0,0-32,32,32,32,0,0,1-32,32,32,32,0,1,0,0,64h80v16h64a72,72,0,0,1,72-72h20a36,36,0,0,0,0-72h8A52,52,0,0,0,440.941,60Z"/>
      <g id="Group_752" data-name="Group 752">
        <path id="Path_872" data-name="Path 872" class="cls-2" d="M176.941,248h-32a40,40,0,0,1,0-80,24.027,24.027,0,0,0,24-24,40.047,40.047,0,0,1,40-40h24v16h-24a24.027,24.027,0,0,0-24,24,40.047,40.047,0,0,1-40,40,24,24,0,0,0,0,48h32Z"/>
        <path id="Path_873" data-name="Path 873" class="cls-2" d="M296.941,256h-16a80.09,80.09,0,0,1,80-80h20a28,28,0,0,0,0-56h-20a8,8,0,0,1,0-16h28a44,44,0,0,0,0-88h-28V0h28a60,60,0,0,1,21.988,115.828A43.982,43.982,0,0,1,380.941,192h-20A64.073,64.073,0,0,0,296.941,256Z"/>
        <path id="Path_874" data-name="Path 874" class="cls-2" d="M232.941,256h-16V184a40.047,40.047,0,0,1,40-40,24.027,24.027,0,0,0,24-24V80a40.047,40.047,0,0,1,40-40h48V56h-48a24.027,24.027,0,0,0-24,24v40a40.047,40.047,0,0,1-40,40,24.027,24.027,0,0,0-24,24v72Z"/>
      </g>
    </g>
    <g id="fire" transform="translate(2271.559 6922.844)">
      <path id="Path_791" data-name="Path 791" class="cls-3" d="M123.09,87.066a75.808,75.808,0,0,1-18.161-78.9A6.155,6.155,0,0,0,99.11,0h-.627A45.776,45.776,0,0,0,52.758,45.724V85.291a7.032,7.032,0,1,1-14.065,0,6.157,6.157,0,0,0-9.854-4.922A72.719,72.719,0,0,0,7.858,105.291,71.329,71.329,0,0,0,0,138.052,72.1,72.1,0,1,0,123.09,87.066Zm0,0" transform="translate(0 0)"/>
      <path id="Path_792" data-name="Path 792" class="cls-4" d="M226.64,87.066a75.808,75.808,0,0,1-18.161-78.9A6.155,6.155,0,0,0,202.66,0h-.627a45.478,45.478,0,0,0-26.388,8.4V210.156h.009A72.1,72.1,0,0,0,226.64,87.066Zm0,0" transform="translate(-103.55 0)"/>
      <path id="Path_793" data-name="Path 793" class="cls-5" d="M146.281,307.117l-24.144-24.145a6.156,6.156,0,0,0-8.708,0L89.284,307.117a40.3,40.3,0,1,0,57,0Zm0,0" transform="translate(-45.678 -165.76)"/>
      <path id="Path_794" data-name="Path 794" class="cls-5" d="M204.154,307.117l-24.144-24.145a6.154,6.154,0,0,0-4.355-1.8h-.008v94.747h.01a40.3,40.3,0,0,0,28.5-68.8Zm0,0" transform="translate(-103.552 -165.76)"/>
    </g>
  </g>
</svg>
