<svg xmlns="http://www.w3.org/2000/svg" viewBox="0 0 448 448">
  <defs>
    <style>
      .cls-1 {
        fill: #fff;
        stroke: #707070;
        opacity: 0;
      }

      .cls-2 {
        fill: #c1dce5;
      }

      .cls-3 {
        fill: #e5cec1;
      }

      .cls-4 {
        fill: #917966;
      }

      .cls-5 {
        fill: #67342c;
      }

      .cls-6 {
        fill: #6b6b6b;
      }

      .cls-7 {
        fill: #ffd884;
      }

      .cls-8 {
        stroke: none;
      }

      .cls-9 {
        fill: none;
      }
    </style>
  </defs>
  <g id="rubish" transform="translate(-1720 -4072)">
    <g id="Rectangle_232" data-name="Rectangle 232" class="cls-1" transform="translate(1720 4072)">
      <rect class="cls-8" width="448" height="448"/>
      <rect class="cls-9" x="0.5" y="0.5" width="447" height="447"/>
    </g>
    <g id="rubbish" transform="translate(1790 4142)">
      <path id="Path_833" data-name="Path 833" class="cls-2" d="M395.915,53.976h23.6L388.639,23.1V46.7L375.991,59.347l-2.945-11.769-9.983,2.5,4.44,17.755L343.832,91.5l7.277,7.277,4.061-4.059v0l27.314,5.46L384.5,90.1l-20.588-4.122L374.78,75.111l17.759,4.44,2.49-9.983-11.764-2.945Zm0,0" transform="translate(-136.484 -9.169)"/>
      <path id="Path_834" data-name="Path 834" class="cls-2" d="M99.119,50.079l-9.983-2.5L86.191,59.346,73.543,46.7V23.1L42.668,53.976h23.6l12.65,12.648L67.152,69.568l2.49,9.983L87.4,75.111,98.268,85.977,77.68,90.1,79.7,100.187l27.314-5.46v0l4.061,4.059L118.35,91.5,94.678,67.834Zm0,0" transform="translate(-16.937 -9.169)"/>
      <path id="Path_835" data-name="Path 835" class="cls-3" d="M366.934,195.6h51.459a15.438,15.438,0,1,0,26.869-10.292,15.438,15.438,0,1,0-26.869-10.292H366.934Zm0,0" transform="translate(-145.655 -63.31)"/>
      <path id="Path_836" data-name="Path 836" class="cls-3" d="M90.869,195.6H39.41a15.438,15.438,0,1,1-26.869-10.292A15.438,15.438,0,1,1,39.41,175.015H90.869Zm0,0" transform="translate(-3.387 -63.31)"/>
      <path id="Path_837" data-name="Path 837" class="cls-4" d="M8.535,293.95H307a125.217,125.217,0,0,0-14.353-58.211L218.076,93.683a68.116,68.116,0,0,0-120.615,0L22.886,235.739A125.187,125.187,0,0,0,8.535,293.95Zm0,0" transform="translate(-3.388 -22.719)"/>
      <path id="Path_838" data-name="Path 838" class="cls-5" d="M170.03,19.076a5.138,5.138,0,0,1-3.637-1.508L156.1,7.277,163.378,0l6.652,6.655L176.685,0l7.277,7.277L173.67,17.568a5.144,5.144,0,0,1-3.639,1.508Zm0,0" transform="translate(-61.965)"/>
      <path id="Path_839" data-name="Path 839" class="cls-5" d="M323.631,19.076a5.144,5.144,0,0,1-3.639-1.508L309.7,7.277,316.976,0l6.655,6.655L330.286,0l7.277,7.277L327.268,17.568a5.138,5.138,0,0,1-3.637,1.508Zm0,0" transform="translate(-122.936)"/>
      <path id="Path_840" data-name="Path 840" class="cls-6" d="M273.437,363.539h-.959l10.292-20.584-3.055-3.058a12.491,12.491,0,0,0-15.752-1.543,12.481,12.481,0,0,1-13.844,0,12.487,12.487,0,0,0-15.75,1.543l-3.058,3.058L241.6,363.539h-.956a24.774,24.774,0,0,0-24.774,24.772A24.772,24.772,0,0,0,191.1,363.539h-.956l10.292-20.584-3.058-3.058a12.49,12.49,0,0,0-15.752-1.543,12.477,12.477,0,0,1-13.842,0,12.49,12.49,0,0,0-15.752,1.543l-3.058,3.058,10.292,20.584h-.956a24.772,24.772,0,0,0-24.772,24.772,24.774,24.774,0,0,0-24.774-24.772h-.956L118.1,342.955,115.04,339.9a12.487,12.487,0,0,0-15.75-1.543,12.481,12.481,0,0,1-13.844,0A12.491,12.491,0,0,0,69.694,339.9l-3.055,3.058,10.292,20.584h-.959A24.773,24.773,0,0,0,51.2,388.311v22.5a24.773,24.773,0,0,0,24.772,24.772h32.791a24.774,24.774,0,0,0,24.774-24.772,24.772,24.772,0,0,0,24.772,24.772H191.1a24.772,24.772,0,0,0,24.772-24.772,24.774,24.774,0,0,0,24.774,24.772h32.791a24.773,24.773,0,0,0,24.772-24.772v-22.5a24.773,24.773,0,0,0-24.772-24.772Zm0,0" transform="translate(-20.324 -133.476)"/>
      <g id="Group_749" data-name="Group 749" transform="translate(87.482 121.997)">
        <path id="Path_841" data-name="Path 841" class="cls-5" d="M145.066,219.367h10.292v10.292H145.066Zm0,0" transform="translate(-145.066 -209.075)"/>
        <path id="Path_842" data-name="Path 842" class="cls-5" d="M162.133,202.3h10.292v10.292H162.133Zm0,0" transform="translate(-151.841 -202.301)"/>
        <path id="Path_843" data-name="Path 843" class="cls-5" d="M349.867,219.367h10.292v10.292H349.867Zm0,0" transform="translate(-226.362 -209.075)"/>
        <path id="Path_844" data-name="Path 844" class="cls-5" d="M332.8,202.3h10.292v10.292H332.8Zm0,0" transform="translate(-219.588 -202.301)"/>
        <path id="Path_845" data-name="Path 845" class="cls-5" d="M247.465,244.965h10.294v10.292H247.465Zm0,0" transform="translate(-185.713 -219.237)"/>
        <path id="Path_846" data-name="Path 846" class="cls-5" d="M264.535,262.031h10.292v10.292H264.535Zm0,0" transform="translate(-192.489 -226.011)"/>
        <path id="Path_847" data-name="Path 847" class="cls-5" d="M230.4,262.031H240.69v10.292H230.4Zm0,0" transform="translate(-178.939 -226.011)"/>
      </g>
      <path id="Path_848" data-name="Path 848" class="cls-7" d="M235.676,99.9a30.877,30.877,0,1,0,30.876,30.876A30.875,30.875,0,0,0,235.676,99.9Zm0,41.167a10.292,10.292,0,1,1,10.292-10.292A10.292,10.292,0,0,1,235.676,141.066Zm0,0" transform="translate(-81.296 -39.655)"/>
      <path id="Path_849" data-name="Path 849" d="M163.378,0,156.1,7.277l10.292,10.292a5.145,5.145,0,0,0,7.277,0L183.962,7.277,176.685,0l-6.655,6.655Zm0,0" transform="translate(-61.965 0)"/>
      <path id="Path_850" data-name="Path 850" d="M316.976,0,309.7,7.277l10.292,10.292a5.145,5.145,0,0,0,7.277,0L337.56,7.277,330.283,0l-6.652,6.652Zm0,0" transform="translate(-122.936 0)"/>
      <path id="Path_851" data-name="Path 851" d="M145.066,219.367h10.292v10.292H145.066Zm0,0" transform="translate(-57.584 -87.078)"/>
      <path id="Path_852" data-name="Path 852" d="M162.133,202.3h10.292v10.292H162.133Zm0,0" transform="translate(-64.359 -80.304)"/>
      <path id="Path_853" data-name="Path 853" d="M349.867,219.367h10.292v10.292H349.867Zm0,0" transform="translate(-138.88 -87.078)"/>
      <path id="Path_854" data-name="Path 854" d="M332.8,202.3h10.292v10.292H332.8Zm0,0" transform="translate(-132.106 -80.304)"/>
      <path id="Path_855" data-name="Path 855" d="M247.465,244.965h10.294v10.292H247.465Zm0,0" transform="translate(-98.231 -97.239)"/>
      <path id="Path_856" data-name="Path 856" d="M264.535,262.031h10.292v10.292H264.535Zm0,0" transform="translate(-105.007 -104.014)"/>
      <path id="Path_857" data-name="Path 857" d="M230.4,262.031H240.69v10.292H230.4Zm0,0" transform="translate(-91.457 -104.014)"/>
      <path id="Path_858" data-name="Path 858" d="M288.177,96.9a20.618,20.618,0,0,0-19.931,15.439H239.186l-9.917-18.885L246,96.8l2.019-10.087L227.434,82.6,238.3,71.729l17.759,4.44,2.492-9.983-11.764-2.945,7.5-7.507H283.03a5.145,5.145,0,0,0,3.639-8.784L255.794,16.074a5.146,5.146,0,0,0-8.784,3.639V48.458l-7.5,7.51-2.945-11.776-9.983,2.5,4.44,17.755-11.13,11.135-.648-1.23a73.259,73.259,0,0,0-129.721,0l-.648,1.23L77.742,64.448l4.44-17.755-9.983-2.5L69.254,55.965l-7.5-7.507V19.712a5.145,5.145,0,0,0-8.784-3.637L22.092,46.95a5.147,5.147,0,0,0,3.639,8.784H54.477l7.5,7.5L50.216,66.182l2.49,9.983,17.759-4.44L81.334,82.591,60.75,86.709,62.767,96.8,79.5,93.451l-9.922,18.89H40.515A20.584,20.584,0,0,0,0,117.488,20.306,20.306,0,0,0,2.81,127.78,20.3,20.3,0,0,0,0,138.072a20.584,20.584,0,0,0,40.515,5.145H53.379L14.923,216.409A130.89,130.89,0,0,0,0,277.013a5.146,5.146,0,0,0,5.147,5.147H25.731v.961a29.943,29.943,0,0,0,29.912,29.915h32.8a29.9,29.9,0,0,0,24.767-13.159,29.9,29.9,0,0,0,24.767,13.159h32.8a29.9,29.9,0,0,0,24.767-13.159,29.9,29.9,0,0,0,24.767,13.159h32.8a29.943,29.943,0,0,0,29.912-29.915v-.961h20.584a5.146,5.146,0,0,0,5.147-5.147,130.9,130.9,0,0,0-14.923-60.6L255.4,143.216h12.867a20.584,20.584,0,0,0,40.5-5.145,20.3,20.3,0,0,0-2.81-10.292,20.306,20.306,0,0,0,2.81-10.292A20.585,20.585,0,0,0,288.177,96.9ZM257.3,32.136l13.307,13.307H257.3ZM51.459,45.443H38.152L51.459,32.136ZM36.023,132.925a5.146,5.146,0,0,0-5.147,5.147,10.292,10.292,0,1,1-20.584,0,10.162,10.162,0,0,1,2.681-6.85,5.145,5.145,0,0,0,0-6.886,10.161,10.161,0,0,1-2.681-6.848,10.292,10.292,0,0,1,20.584,0,5.146,5.146,0,0,0,5.147,5.145H64.17l-5.4,10.292Zm72.043,150.2a19.648,19.648,0,0,1-19.62,19.623h-32.8a19.646,19.646,0,0,1-19.62-19.623V260.613a19.648,19.648,0,0,1,19.62-19.623h5.691L47.441,258.359l8.037,6.433L66.9,250.517v16.2H77.19v-16.2l11.418,14.275,8.04-6.433-13.9-17.368h5.694a19.648,19.648,0,0,1,19.62,19.623Zm-55.49-66.83.433-.433a7.344,7.344,0,0,1,9.262-.912,17.6,17.6,0,0,0,19.554,0,7.359,7.359,0,0,1,9.262.916l.433.433-7.2,14.407H59.787ZM190.4,283.122a19.648,19.648,0,0,1-19.623,19.623h-32.8a19.648,19.648,0,0,1-19.623-19.623V260.613a19.648,19.648,0,0,1,19.623-19.623h5.691l-13.894,17.368,8.037,6.433,11.418-14.275v16.2h10.294v-16.2l11.418,14.275,8.037-6.433-13.894-17.368h5.691A19.648,19.648,0,0,1,190.4,260.613Zm-55.49-66.83.431-.433a7.348,7.348,0,0,1,9.265-.912,17.6,17.6,0,0,0,19.554,0,7.36,7.36,0,0,1,9.262.916l.433.433L166.654,230.7H142.124Zm137.825,66.83a19.648,19.648,0,0,1-19.62,19.623h-32.8a19.648,19.648,0,0,1-19.62-19.623V260.613a19.648,19.648,0,0,1,19.62-19.623h5.694l-13.9,17.368,8.038,6.433,11.42-14.275v16.2h10.292v-16.2l11.418,14.275,8.04-6.433-13.894-17.368h5.691a19.646,19.646,0,0,1,19.62,19.623Zm-55.49-66.83.433-.433a7.344,7.344,0,0,1,9.262-.912,17.6,17.6,0,0,0,19.554,0,7.363,7.363,0,0,1,9.265.916l.431.433-7.2,14.407H224.459Zm67.454,4.914a120.589,120.589,0,0,1,13.658,50.663H283.03V260.613a29.942,29.942,0,0,0-22.972-29.069l7.02-13.983a5.146,5.146,0,0,0-.968-5.939l-3.055-3.055a17.666,17.666,0,0,0-22.242-2.2,7.335,7.335,0,0,1-8.141,0,17.663,17.663,0,0,0-22.24,2.2l-3.058,3.055a5.146,5.146,0,0,0-.968,5.939l6.994,13.983a30,30,0,0,0-17.851,12.313,30.007,30.007,0,0,0-17.828-12.313l7.02-13.983a5.143,5.143,0,0,0-.968-5.939l-3.055-3.055a17.666,17.666,0,0,0-22.242-2.2,7.335,7.335,0,0,1-8.141,0,17.663,17.663,0,0,0-22.24,2.2l-3.058,3.055a5.15,5.15,0,0,0-.968,5.939l6.994,13.983a30,30,0,0,0-17.851,12.313,30,30,0,0,0-17.825-12.313l7.018-13.983a5.146,5.146,0,0,0-.966-5.939l-3.058-3.055a17.666,17.666,0,0,0-22.242-2.2,7.331,7.331,0,0,1-8.139,0,17.666,17.666,0,0,0-22.242,2.2L42.7,211.623a5.146,5.146,0,0,0-.966,5.939l6.992,13.983a29.942,29.942,0,0,0-23,29.069v11.255H10.4a120.6,120.6,0,0,1,13.658-50.68L98.634,79.159a62.963,62.963,0,0,1,111.493,0Zm11.086-89.968a10.159,10.159,0,0,1,2.681,6.834,10.292,10.292,0,1,1-20.584,0,5.146,5.146,0,0,0-5.147-5.147H249.994l-5.4-10.292h28.148a5.146,5.146,0,0,0,5.147-5.147,10.292,10.292,0,1,1,20.584,0,10.162,10.162,0,0,1-2.681,6.85,5.145,5.145,0,0,0,0,6.886Zm0,0" transform="translate(0 -5.782)"/>
      <path id="Path_859" data-name="Path 859" d="M245.837,125.5a15.438,15.438,0,1,0,15.439,15.439A15.44,15.44,0,0,0,245.837,125.5Zm0,20.584a5.146,5.146,0,1,1,5.147-5.147A5.148,5.148,0,0,1,245.837,146.084Zm0,0" transform="translate(-91.457 -49.817)"/>
      <path id="Path_860" data-name="Path 860" d="M232.288,91.367a36.022,36.022,0,1,0,36.023,36.02A36.022,36.022,0,0,0,232.288,91.367Zm0,61.751a25.73,25.73,0,1,1,25.731-25.731A25.731,25.731,0,0,1,232.288,153.118Zm0,0" transform="translate(-77.908 -36.268)"/>
    </g>
  </g>
</svg>
