<svg xmlns="http://www.w3.org/2000/svg" viewBox="0 0 448 448">
  <defs>
    <style>
      .cls-1 {
        fill: #fff;
        stroke: #707070;
        opacity: 0;
      }

      .cls-2 {
        fill: #8a8a8a;
      }

      .cls-3 {
        fill: #5c5c5c;
      }

      .cls-4 {
        fill: #ff1d1d;
      }

      .cls-5 {
        fill: #fc3d21;
      }

      .cls-6 {
        fill: #a80000;
      }

      .cls-7 {
        stroke: none;
      }

      .cls-8 {
        fill: none;
      }
    </style>
  </defs>
  <g id="smoke" transform="translate(-2239 -4072)">
    <g id="Rectangle_234" data-name="Rectangle 234" class="cls-1" transform="translate(2239 4072)">
      <rect class="cls-7" width="448" height="448"/>
      <rect class="cls-8" x="0.5" y="0.5" width="447" height="447"/>
    </g>
    <g id="Group_753" data-name="Group 753" transform="translate(94.118 -2617)">
      <g id="smoke-2" data-name="smoke" transform="translate(2219.882 6746)">
        <path id="Path_870" data-name="Path 870" class="cls-2" d="M396.2,52.907A44.907,44.907,0,0,0,351.295,8H330.568A17.272,17.272,0,0,0,313.3,25.272a17.272,17.272,0,0,1-17.272,17.272H292.57a27.635,27.635,0,0,0-27.635,27.635V97.814H195.847a27.635,27.635,0,0,0-27.635,27.635,27.635,27.635,0,0,1-27.635,27.635,27.635,27.635,0,1,0,0,55.27h69.088v13.818h55.27a62.179,62.179,0,0,1,62.179-62.179h17.272a31.09,31.09,0,0,0,0-62.179h6.909A44.907,44.907,0,0,0,396.2,52.907Z" transform="translate(-106.032 -1.091)"/>
        <g id="Group_752" data-name="Group 752" transform="translate(0)">
          <path id="Path_872" data-name="Path 872" class="cls-3" d="M167.12,228.358H139.485a34.544,34.544,0,0,1,0-69.088,20.75,20.75,0,0,0,20.726-20.726A34.584,34.584,0,0,1,194.755,104h20.726v13.818H194.755a20.749,20.749,0,0,0-20.726,20.726,34.584,34.584,0,0,1-34.544,34.544,20.726,20.726,0,0,0,0,41.453H167.12Z" transform="translate(-104.941 -14.186)"/>
          <path id="Path_873" data-name="Path 873" class="cls-3" d="M294.759,221.082H280.941a69.165,69.165,0,0,1,69.088-69.088H367.3a24.181,24.181,0,0,0,0-48.362H350.029a6.909,6.909,0,0,1,0-13.818H374.21a38,38,0,0,0,0-76H350.029V0H374.21A51.817,51.817,0,0,1,393.2,100.029a37.983,37.983,0,0,1-25.9,65.782H350.029A55.334,55.334,0,0,0,294.759,221.082Z" transform="translate(-128.947)"/>
          <path id="Path_874" data-name="Path 874" class="cls-3" d="M230.759,226.538H216.941V164.358a34.584,34.584,0,0,1,34.544-34.544,20.749,20.749,0,0,0,20.726-20.726V74.544A34.584,34.584,0,0,1,306.755,40h41.453V53.818H306.755a20.749,20.749,0,0,0-20.726,20.726v34.544a34.584,34.584,0,0,1-34.544,34.544,20.75,20.75,0,0,0-20.726,20.726v62.179Z" transform="translate(-120.218 -5.456)"/>
        </g>
      </g>
      <g id="fire" transform="translate(2264.51 6898.723)">
        <path id="Path_791" data-name="Path 791" class="cls-4" d="M106.3,75.19A65.468,65.468,0,0,1,90.617,7.052,5.316,5.316,0,0,0,85.592,0H85.05A39.532,39.532,0,0,0,45.562,39.488V73.657a6.073,6.073,0,1,1-12.146,0,5.317,5.317,0,0,0-8.51-4.251A62.8,62.8,0,0,0,6.786,90.93,61.6,61.6,0,0,0,0,119.222,62.27,62.27,0,1,0,106.3,75.19Zm0,0" transform="translate(0 0)"/>
        <path id="Path_792" data-name="Path 792" class="cls-5" d="M219.684,75.19A65.468,65.468,0,0,1,204,7.052,5.316,5.316,0,0,0,198.975,0h-.541a39.275,39.275,0,0,0-22.789,7.257V181.49h.008a62.269,62.269,0,0,0,44.031-106.3Zm0,0" transform="translate(-113.384 0)"/>
        <path id="Path_793" data-name="Path 793" class="cls-6" d="M136.9,303.577l-20.85-20.852a5.316,5.316,0,0,0-7.52,0L87.674,303.577a34.8,34.8,0,1,0,49.222,0Zm0,0" transform="translate(-50.016 -181.501)"/>
        <path id="Path_794" data-name="Path 794" class="cls-6" d="M200.266,303.577l-20.85-20.852a5.315,5.315,0,0,0-3.761-1.558h-.007v81.824h.008a34.8,34.8,0,0,0,24.61-59.414Zm0,0" transform="translate(-113.385 -181.501)"/>
      </g>
    </g>
  </g>
</svg>
